<svg width="110" height="91" viewBox="0 0 110 91" fill="none" xmlns="http://www.w3.org/2000/svg">
<g id="Group">
<path id="Vector" d="M77.9054 0.546398C77.9054 1.66276 78.9268 4.7268 80.0669 7.05453C82.0383 11.0449 85.3636 14.1802 88.9977 15.4866C89.8291 15.7954 90.4941 16.0804 90.4941 16.1517C90.4941 16.2229 89.8291 16.5079 88.9977 16.8167C85.3636 18.1231 81.9433 21.3297 80.0431 25.2725C78.903 27.6003 77.9054 30.6643 77.9054 31.7569C77.9054 32.0657 77.7867 32.3032 77.6679 32.3032C77.5254 32.3032 77.4304 32.0657 77.4304 31.7569C77.4304 30.6643 76.4328 27.6003 75.2927 25.2725C73.3925 21.3297 69.9722 18.1231 66.3381 16.8167C65.5067 16.5079 64.8417 16.2229 64.8417 16.1517C64.8417 16.0804 65.5067 15.7954 66.3381 15.4866C69.9722 14.1802 73.3925 10.9737 75.2927 7.03078C76.4328 4.70305 77.4304 1.639 77.4304 0.546398C77.4304 0.237617 77.5254 9.53674e-05 77.6679 9.53674e-05C77.7867 9.53674e-05 77.9054 0.237617 77.9054 0.546398Z" fill="#FF7D00"/>
<path id="Vector_2" d="M9.49876 10.0708C9.49876 10.9734 10.4251 13.7524 11.3514 15.5576C12.4678 17.7903 15.033 20.3793 16.9095 21.1394C17.6695 21.4481 18.2871 21.7569 18.2871 21.8282C18.2871 21.8994 17.6695 22.232 16.9095 22.5407C15.033 23.3483 12.444 25.9373 11.3514 28.1463C10.4251 29.9515 9.49876 32.7305 9.49876 33.6331C9.49876 33.9418 9.38 34.2031 9.26124 34.2031C9.11872 34.2031 9.02371 33.9418 9.02371 33.6331C9.02371 32.7542 8.09737 29.9752 7.21854 28.2175C6.17344 26.1511 3.96447 23.7996 2.1593 22.8495C1.39923 22.422 0.591648 22.0895 0.377878 22.0895C0.164106 22.0895 -0.00215912 21.9707 -0.00215912 21.8519C-0.00215912 21.7094 0.140354 21.6144 0.306622 21.6144C0.496639 21.6144 1.28047 21.2819 2.08804 20.9018C3.91697 19.9755 6.12593 17.624 7.21854 15.4863C8.09737 13.7286 9.02371 10.9496 9.02371 10.0708C9.02371 9.76201 9.11872 9.50073 9.26124 9.50073C9.38 9.50073 9.49876 9.76201 9.49876 10.0708Z" fill="#FF7D00"/>
<path id="Vector_3" d="M93.1078 44.6305C93.1078 45.6518 94.4854 50.9486 95.2692 52.92C97.8582 59.4044 101.682 63.7986 106.908 66.245C108.048 66.7914 109.093 67.2189 109.236 67.2189C109.901 67.2189 109.354 67.6227 107.882 68.2165C102.229 70.5205 98.0007 75.1284 95.2692 81.9928C94.4854 83.9643 93.1078 89.261 93.1078 90.2824C93.1078 90.6624 92.989 90.9712 92.8702 90.9712C92.7277 90.9712 92.6327 90.6862 92.6327 90.3061C92.6327 89.9498 92.4189 88.7622 92.1577 87.6459C90.59 80.5914 87.4547 74.9384 83.1318 71.3518C81.5166 69.9979 78.6901 68.4065 77.0037 67.9077C76.4574 67.7414 76.0061 67.5514 76.0061 67.4564C76.0061 67.3614 76.4574 67.1714 77.0037 67.0051C79.7827 66.1738 83.5831 63.5848 85.6495 61.1383C87.8823 58.4305 89.8299 54.9865 90.9226 51.6611C91.6589 49.4759 92.3952 46.5781 92.5615 45.1768C92.704 43.8704 93.1078 43.4666 93.1078 44.6305Z" fill="#FF7D00"/>
</g>
</svg>
