<svg width="124" height="103" viewBox="0 0 124 103" fill="none" xmlns="http://www.w3.org/2000/svg">
<g id="Group">
<path id="Vector" d="M35.6394 0.615734C35.6394 1.87445 34.4878 5.32925 33.2023 7.95382C30.9795 12.4531 27.2301 15.9882 23.1325 17.4612C22.1952 17.8093 21.4453 18.1307 21.4453 18.2111C21.4453 18.2914 22.1952 18.6128 23.1325 18.9609C27.2301 20.4339 31.0866 24.0494 33.2291 28.4951C34.5146 31.1197 35.6394 34.5745 35.6394 35.8064C35.6394 36.1546 35.7733 36.4224 35.9072 36.4224C36.0679 36.4224 36.175 36.1546 36.175 35.8064C36.175 34.5745 37.2999 31.1197 38.5854 28.4951C40.7279 24.0494 44.5844 20.4339 48.6819 18.9609C49.6193 18.6128 50.3691 18.2914 50.3691 18.2111C50.3691 18.1307 49.6193 17.8093 48.6819 17.4612C44.5844 15.9882 40.7279 12.3727 38.5854 7.92703C37.2999 5.30246 36.175 1.84768 36.175 0.615734C36.175 0.267574 36.0679 -0.000236511 35.9072 -0.000236511C35.7733 -0.000236511 35.6394 0.267574 35.6394 0.615734Z" fill="#FF7D00"/>
<path id="Vector_2" d="M112.77 11.3551C112.77 12.3728 111.726 15.5062 110.681 17.5416C109.423 20.059 106.53 22.9782 104.415 23.8352C103.558 24.1834 102.861 24.5315 102.861 24.6119C102.861 24.6922 103.558 25.0672 104.415 25.4153C106.53 26.3259 109.45 29.245 110.681 31.7357C111.726 33.7711 112.77 36.9045 112.77 37.9222C112.77 38.2703 112.904 38.5649 113.038 38.5649C113.199 38.5649 113.306 38.2703 113.306 37.9222C113.306 36.9313 114.351 33.7979 115.341 31.816C116.52 29.4861 119.01 26.8347 121.046 25.7635C121.903 25.2814 122.813 24.9065 123.054 24.9065C123.295 24.9065 123.483 24.7726 123.483 24.6387C123.483 24.478 123.322 24.3708 123.135 24.3708C122.921 24.3708 122.037 23.9959 121.126 23.5674C119.064 22.5229 116.573 19.8716 115.341 17.4613C114.351 15.4794 113.306 12.346 113.306 11.3551C113.306 11.007 113.199 10.7124 113.038 10.7124C112.904 10.7124 112.77 11.007 112.77 11.3551Z" fill="#FF7D00"/>
<path id="Vector_3" d="M18.5003 50.3219C18.5003 51.4735 16.947 57.4457 16.0632 59.6686C13.144 66.9799 8.83223 71.9344 2.94033 74.6929C1.65483 75.3089 0.476453 75.7909 0.315765 75.7909C-0.434112 75.7909 0.181859 76.2462 1.8423 76.9158C8.21626 79.5135 12.9833 84.7091 16.0632 92.4489C16.947 94.6718 18.5003 100.644 18.5003 101.796C18.5003 102.224 18.6342 102.572 18.7681 102.572C18.9288 102.572 19.0359 102.251 19.0359 101.822C19.0359 101.421 19.2769 100.082 19.5715 98.8229C21.3391 90.8688 24.8742 84.4949 29.7484 80.4509C31.5696 78.9244 34.7565 77.13 36.658 76.5676C37.274 76.3801 37.7828 76.1659 37.7828 76.0588C37.7828 75.9516 37.274 75.7374 36.658 75.5499C33.5246 74.6126 29.2396 71.6934 26.9096 68.9349C24.3922 65.8819 22.1961 61.9986 20.9642 58.2492C20.1339 55.7853 19.3037 52.518 19.1163 50.9379C18.9556 49.4649 18.5003 49.0096 18.5003 50.3219Z" fill="#FF7D00"/>
</g>
</svg>
